<svg width="113" height="122" viewBox="0 0 113 122" fill="none" xmlns="http://www.w3.org/2000/svg">
<g clip-path="url(#clip0_139_19)">
<path d="M74.0749 0.935351C80.3582 -0.609727 87.961 -0.445452 96.8106 2.98968C106.206 6.63685 110.667 16.5936 112.262 28.1079C113.877 39.7618 112.713 53.9203 110.01 67.5265C107.302 81.1509 103.008 94.4315 98.2161 104.368C95.8258 109.323 93.2589 113.56 90.626 116.6C88.094 119.523 85.0323 121.88 81.6127 121.88C80.1067 121.88 78.6472 121.33 77.3566 120.619C76.0385 119.893 74.6982 118.889 73.3788 117.731C70.7389 115.413 67.9519 112.27 65.3011 108.869C61.323 103.764 57.4973 97.8727 54.788 92.8943C53.9849 94.5099 53.1536 96.2798 52.2626 98.1568C50.5299 101.806 48.6037 105.789 46.3529 109.391C41.9252 116.479 35.6234 123.054 26.0465 121.86C24.4761 121.664 23.0859 120.86 21.9125 119.875C20.7236 118.878 19.5905 117.556 18.5172 116.032C16.3696 112.986 14.2498 108.834 12.2627 104.004C8.27967 94.3208 4.668 81.512 2.41344 68.3477C0.161825 55.2004 -0.767099 41.5189 0.727602 30.1282C2.20065 18.9032 6.15528 9.03784 14.5139 4.86615C24.2047 0.0297939 33.3782 0.843571 40.9066 3.88579C45.4154 5.70786 49.3467 8.33036 52.5114 11.0265C54.1132 9.16036 56.5189 7.47851 58.9134 6.12478C61.8302 4.47579 65.1338 3.08578 67.9529 2.27824C70.2249 1.62745 72.2535 1.20308 74.0749 0.935351ZM38.9568 8.73485C32.5585 6.14928 24.9676 5.48951 16.8381 9.54667C10.9408 12.49 7.32161 19.9682 5.89884 30.8099C4.49788 41.486 5.35072 54.5967 7.55412 67.4626C9.75471 80.3117 13.2709 92.74 17.0842 102.011C18.9954 106.657 20.9418 110.413 22.7759 113.016C23.6932 114.317 24.5309 115.254 25.2596 115.866C26.0035 116.49 26.4793 116.645 26.6908 116.671C33.0283 117.462 37.7164 113.366 41.9328 106.617C44.004 103.301 45.814 99.5738 47.5532 95.9103C49.2585 92.3183 50.9343 88.6983 52.6591 85.8809L52.7583 85.7303C53.28 84.9969 54.1469 84.5809 55.052 84.6402C56.0172 84.7035 56.868 85.2976 57.2624 86.1831C59.5323 91.2804 64.3103 99.1032 69.4112 105.649C71.9579 108.918 74.5174 111.78 76.815 113.797C77.9641 114.806 78.9908 115.553 79.8675 116.036C80.7715 116.534 81.3368 116.651 81.6127 116.651C82.648 116.651 84.3755 115.841 86.6881 113.171C88.9006 110.617 91.2336 106.835 93.5214 102.091C98.0858 92.6285 102.255 79.7835 104.894 66.5052C107.537 53.2087 108.601 39.6856 107.097 28.8279C105.573 17.8306 101.57 10.4442 94.927 7.86594C94.0856 7.53929 93.2589 7.24689 92.4479 6.98599C88.5451 7.23438 83.1299 6.19854 74.5528 10.2113C68.732 12.9347 64.0316 18.4776 61.7928 21.8088C62.6739 23.1618 63.5038 24.5397 64.2536 25.8936C66.0761 29.1841 67.5464 32.5234 68.1193 35.0963C68.4329 36.5054 67.5477 37.9032 66.1423 38.2179C64.7369 38.5321 63.3425 37.6447 63.0287 36.2359C62.6176 34.3894 61.4286 31.5649 59.6936 28.4322C57.9819 25.3417 55.8452 22.1426 53.6811 19.5604C50.6465 15.9398 45.4321 11.3516 38.9568 8.73485Z" fill="#C58F59"/>
</g>
<defs>
<clipPath id="clip0_139_19">
<rect width="113" height="122" fill="white"/>
</clipPath>
</defs>
</svg>
