<svg width="70" height="70" viewBox="0 0 70 70" fill="none" xmlns="http://www.w3.org/2000/svg">
<rect width="70" height="70" rx="4" fill="#C58F59"/>
<g clip-path="url(#clip0_46_158)">
<rect width="52" height="52" transform="translate(8.66994 9)" fill="#C58F59"/>
<path d="M15.2449 29.778C17.6268 34.3249 21.2641 37.1485 24.7519 38.8992C30.3257 41.6968 36.3247 42.05 41.9935 39.9619L42.0966 39.9242" stroke="#F7F7F7" stroke-width="1.5" stroke-miterlimit="10" stroke-linecap="round" stroke-linejoin="round"/>
<path d="M45.2965 38.4468C48.5035 36.6744 51.7512 33.9564 53.9384 29.7957" stroke="#F7F7F7" stroke-width="1.5" stroke-miterlimit="10" stroke-linecap="round" stroke-linejoin="round"/>
<path d="M9.42082 29.0597C10.2912 30.1057 11.168 31.1442 12.0468 32.1803C16.4565 37.3798 20.7454 42.4943 26.4923 45.5946C32.0117 48.5724 37.3138 48.5799 42.8477 45.5945C48.5944 42.4943 52.8834 37.3798 57.293 32.1803C58.1718 31.1442 59.0486 30.1057 59.919 29.0597" stroke="#F7F7F7" stroke-width="1.5" stroke-miterlimit="10" stroke-linecap="round" stroke-linejoin="round"/>
<path d="M29.7054 30.8124V34.1907C29.7054 34.7264 30.1397 35.1608 30.6756 35.1608H33.6787C34.2144 35.1608 34.6488 34.7264 34.6488 34.1907V30.9119" stroke="#F7F7F7" stroke-width="1.5" stroke-miterlimit="10" stroke-linecap="round" stroke-linejoin="round"/>
<path d="M34.6564 30.9119V34.1907C34.6564 34.7265 35.0908 35.1608 35.6266 35.1608H38.6298C39.1655 35.1608 39.5998 34.7265 39.5998 34.1907V30.8124" stroke="#F7F7F7" stroke-width="1.5" stroke-miterlimit="10" stroke-linecap="round" stroke-linejoin="round"/>
<path d="M39.6344 30.8124V34.3246C39.6344 34.7864 40.0088 35.1608 40.4706 35.1608H43.0592C43.521 35.1608 43.8954 34.7864 43.8954 34.3246V30.6156" stroke="#F7F7F7" stroke-width="1.5" stroke-miterlimit="10" stroke-linecap="round" stroke-linejoin="round"/>
<path d="M43.8955 30.6169V32.9033C43.8955 33.3403 44.2497 33.6945 44.6866 33.6945H47.1358C47.5728 33.6945 47.9271 33.3403 47.9271 32.9033V30.3454" stroke="#F7F7F7" stroke-width="1.5" stroke-miterlimit="10" stroke-linecap="round" stroke-linejoin="round"/>
<path d="M29.7053 30.8124V34.3246C29.7053 34.7864 29.3309 35.1608 28.8691 35.1608H26.2805C25.8186 35.1608 25.4443 34.7864 25.4443 34.3246V30.6156" stroke="#F7F7F7" stroke-width="1.5" stroke-miterlimit="10" stroke-linecap="round" stroke-linejoin="round"/>
<path d="M25.4444 30.617V32.9033C25.4444 33.3403 25.0901 33.6945 24.6532 33.6945H22.204C21.767 33.6945 21.4127 33.3403 21.4127 32.9033V30.3454" stroke="#F7F7F7" stroke-width="1.5" stroke-miterlimit="10" stroke-linecap="round" stroke-linejoin="round"/>
<path d="M25.3993 21.0608C28.5597 19.9065 31.7884 19.6983 34.67 22.2061C40.2974 17.3088 47.2482 22.7692 52.4293 25.4061C54.9045 26.6659 57.4225 27.8296 59.9086 29.0649C59.9086 29.0649 47.9293 30.8507 34.6806 30.9121V30.9123C34.6771 30.9123 34.6736 30.9122 34.67 30.9122C34.6666 30.9122 34.663 30.9123 34.6595 30.9123V30.9121C21.4107 30.8507 9.43153 29.0649 9.43153 29.0649C11.9177 27.8296 14.4355 26.6659 16.9107 25.4061C18.4931 24.6007 20.2406 23.5321 22.0651 22.5754L22.2194 22.4949" stroke="#F7F7F7" stroke-width="1.5" stroke-miterlimit="10" stroke-linecap="round" stroke-linejoin="round"/>
<path d="M51.3102 45.8811C50.9807 46.5797 50.0265 48.2859 48.3451 48.8663C48.2148 48.9113 48.2148 49.0967 48.3451 49.1416C50.0265 49.722 50.9807 51.4281 51.3102 52.1268C51.3629 52.2386 51.522 52.2386 51.5747 52.1268C51.9042 51.4281 52.8584 49.722 54.5399 49.1416C54.6702 49.0967 54.6702 48.9113 54.5399 48.8663C52.8584 48.2859 51.9042 46.5797 51.5747 45.8811C51.522 45.7694 51.3629 45.7694 51.3102 45.8811Z" stroke="#F7F7F7" stroke-width="1.5" stroke-miterlimit="10" stroke-linecap="round" stroke-linejoin="round"/>
<path d="M18.9207 10.9145C18.4669 11.8768 17.1527 14.2268 14.8367 15.0261C14.6572 15.088 14.6572 15.3433 14.8367 15.4053C17.1527 16.2046 18.4669 18.5546 18.9207 19.5168C18.9933 19.6708 19.2125 19.6708 19.2851 19.5168C19.7389 18.5546 21.0531 16.2046 23.369 15.4053C23.5485 15.3433 23.5485 15.088 23.369 15.0261C21.0531 14.2268 19.7389 11.8768 19.2851 10.9145C19.2125 10.7605 18.9933 10.7605 18.9207 10.9145Z" stroke="#F7F7F7" stroke-width="1.5" stroke-miterlimit="10" stroke-linecap="round" stroke-linejoin="round"/>
<path d="M43.8141 50.4818C43.3604 51.4441 42.0461 53.794 39.7302 54.5933C39.5506 54.6553 39.5506 54.9106 39.7302 54.9726C42.0461 55.7719 43.3604 58.1219 43.8141 59.0841C43.8867 59.2381 44.1059 59.2381 44.1785 59.0841C44.6323 58.1219 45.9465 55.7719 48.2625 54.9726C48.4419 54.9106 48.4419 54.6553 48.2625 54.5933C45.9465 53.794 44.6323 51.4441 44.1785 50.4818C44.1059 50.3278 43.8867 50.3278 43.8141 50.4818Z" stroke="#F7F7F7" stroke-width="1.5" stroke-miterlimit="10" stroke-linecap="round" stroke-linejoin="round"/>
</g>
<defs>
<clipPath id="clip0_46_158">
<rect width="52" height="52" fill="white" transform="translate(8.66994 9)"/>
</clipPath>
</defs>
</svg>
